<svg width="512" height="256" viewBox="0 0 790 513" fill="none" xmlns="http://www.w3.org/2000/svg">
<g id="undraw_Notify_re_65on 1" clip-path="url(#clip0)">
<g id="animationrest">
<path id="Vector" d="M720.563 510.693L698 442.602C698 442.602 722.818 467.42 722.818 487.784L718.364 440.693C718.364 440.693 731.091 457.875 729.818 483.966C728.545 510.057 720.563 510.693 720.563 510.693Z" fill="#E6E6E6"/>
<path id="Vector_2" d="M236.021 448.693L214 382.239C214 382.239 238.222 406.461 238.222 426.335L233.874 380.376C233.874 380.376 246.295 397.145 245.053 422.608C243.811 448.072 236.021 448.693 236.021 448.693Z" fill="#E6E6E6"/>
<path id="Vector_3" d="M579.726 479.359C579.763 523.074 493.061 509.627 386.916 509.719C280.772 509.81 195.381 523.405 195.343 479.691C195.305 435.976 281.976 426.393 388.12 426.302C494.265 426.21 579.688 435.644 579.726 479.359Z" fill="#E6E6E6"/>
<path id="Vector_4" d="M505.336 420.322H491.459L484.855 366.797H505.336V420.322Z" fill="#A0616A"/>
<path id="Vector_5" d="M480.006 416.357H508.31V433.208H464.697V431.667C464.697 427.606 466.31 423.712 469.181 420.841C472.052 417.97 475.946 416.357 480.006 416.357V416.357Z" fill="#2F2E41"/>
<path id="Vector_6" d="M607.336 499.322H593.459L586.855 445.797H607.336V499.322Z" fill="#A0616A"/>
<path id="Vector_7" d="M582.006 495.357H610.31V512.208H566.697V510.667C566.697 506.606 568.31 502.712 571.181 499.841C574.052 496.97 577.946 495.357 582.006 495.357V495.357Z" fill="#2F2E41"/>
<path id="Vector_8" d="M671.345 340.309C672.304 339.145 672.997 337.786 673.374 336.325C673.751 334.865 673.804 333.34 673.528 331.857C673.251 330.375 672.654 328.971 671.776 327.744C670.899 326.517 669.763 325.498 668.449 324.758L636.219 193.465L615.611 202.332L653.947 329.281C652.849 331.57 652.63 334.183 653.331 336.624C654.031 339.064 655.603 341.163 657.747 342.523C659.892 343.882 662.461 344.407 664.967 343.999C667.473 343.592 669.742 342.278 671.345 340.309V340.309Z" fill="#A0616A"/>
<path id="Vector_9" d="M646.208 74.9636C645.057 73.7611 643.658 72.8255 642.107 72.2226C640.556 71.6197 638.891 71.3642 637.231 71.4741C635.571 71.5839 633.955 72.0565 632.497 72.8585C631.039 73.6605 629.774 74.7725 628.792 76.116L578.907 81.8431L586.496 101.085L631.863 92.5937C634.23 94.0934 637.064 94.6729 639.829 94.2225C642.594 93.7721 645.098 92.323 646.866 90.1499C648.634 87.9767 649.544 85.2305 649.423 82.4316C649.301 79.6326 648.157 76.9755 646.208 74.9636V74.9636Z" fill="#A0616A"/>
<path id="Vector_10" d="M564 326.693L585.768 490.067L612.862 484.489C612.862 484.489 608.877 365.508 622.424 351.164C635.971 336.821 605 311.693 605 311.693L564 326.693Z" fill="#2F2E41"/>
<path id="Vector_11" d="M573 281.693L563 296.693C563 296.693 486 264.694 486 315.693C486 366.692 481.594 401.303 480 403.693C478.406 406.084 498.438 412.287 508 410.693C508 410.693 519.797 328.474 519 323.693C519 323.693 594.534 360.726 608.877 357.539C623.221 354.352 626.609 343.068 629 336.693C631.391 330.318 628 279.693 628 279.693L580.19 265.103L573 281.693Z" fill="#2F2E41"/>
<path id="Vector_12" d="M574.349 191.633L571.499 188.212C571.499 188.212 539.575 116.384 552.117 97.0019C564.658 77.6197 619.384 74.7694 621.094 75.9095C622.805 77.0496 617.01 91.8523 621 98.6931C621 98.6931 578.606 107.884 575.756 109.024C572.905 110.165 597.722 152.298 597.722 152.298L594.871 177.951L574.349 191.633Z" fill="#CCCCCC"/>
<path id="Vector_13" d="M630.215 156.289C630.215 156.289 600.572 159.709 599.432 159.709C598.292 159.709 597.722 152.298 597.722 152.298L571.499 188.212C571.499 188.212 558.58 292.403 562 290.693C565.42 288.983 628.505 298.805 629.075 294.244C629.645 289.684 628.505 266.881 630.215 265.741C631.926 264.601 659.859 193.913 659.859 193.913C659.859 193.913 657.008 179.091 647.317 173.961C637.626 168.83 630.215 156.289 630.215 156.289Z" fill="#CCCCCC"/>
<path id="Vector_14" d="M650.738 184.222L659.859 193.913C659.859 193.913 673.411 305.273 666 308.693C658.589 312.113 644 311.693 644 311.693L629.645 258.9L650.738 184.222Z" fill="#CCCCCC"/>
<path id="Vector_15" d="M601.73 149.236C616.221 149.236 627.968 137.489 627.968 122.998C627.968 108.506 616.221 96.7588 601.73 96.7588C587.238 96.7588 575.491 108.506 575.491 122.998C575.491 137.489 587.238 149.236 601.73 149.236Z" fill="#A0616A"/>
<path id="Vector_16" d="M595.573 127.092C595.218 121.647 588.35 121.461 582.894 121.409C577.438 121.358 570.916 121.553 567.828 117.054C565.788 114.081 566.178 109.954 567.863 106.766C569.549 103.579 572.321 101.127 575.049 98.7687C582.09 92.6799 589.347 86.6394 597.801 82.7421C606.255 78.8449 616.161 77.2701 624.929 80.3986C635.699 84.2417 650.258 104.024 651.515 115.39C652.772 126.756 648.23 138.343 640.573 146.836C632.916 155.33 615.391 151.903 604.363 154.924C611.067 145.435 606.648 128.192 595.907 123.76L595.573 127.092Z" fill="#2F2E41"/>
</g>
<g id="exclamationpoint">
<path id="Vector_17" d="M361.422 466.444C396.21 466.444 424.411 438.243 424.411 403.455C424.411 368.667 396.21 340.466 361.422 340.466C326.634 340.466 298.432 368.667 298.432 403.455C298.432 438.243 326.634 466.444 361.422 466.444Z" fill="#FF5714"/>
<path id="Vector_18" d="M319.356 335.99C310.626 335.991 302.084 333.461 294.762 328.707C287.44 323.953 281.653 317.179 278.101 309.204L178.149 84.1121C174.838 76.6559 173.087 68.6013 173.003 60.4435C172.92 52.2857 174.505 44.1969 177.663 36.6745C180.82 29.152 185.483 22.3547 191.364 16.7005C197.245 11.0462 204.22 6.65448 211.861 3.79514C219.502 0.935798 227.646 -0.33071 235.795 0.0734759C243.943 0.477662 251.922 2.544 259.243 6.14547C266.563 9.74694 273.069 14.8075 278.362 21.016C283.654 27.2245 287.621 34.4498 290.019 42.2478L362.396 277.66C364.468 284.398 364.931 291.529 363.748 298.478C362.564 305.428 359.767 312.003 355.582 317.676C351.396 323.348 345.938 327.96 339.647 331.141C333.356 334.322 326.406 335.982 319.356 335.99H319.356Z" fill="#FF5714"/>
</g>
</g>
<defs>
<clipPath id="clip0">
<rect width="790" height="512.208" fill="white"/>
</clipPath>
</defs>
</svg>
